<svg xmlns="http://www.w3.org/2000/svg" viewBox="0 0 2034.09 1222.67">
    <defs>
        <style>.cls-1,.cls-9{fill:none;}.cls-1{stroke:#000;stroke-miterlimit:10;stroke-width:0.5px;}.cls-2{fill:#c24d2c;}.cls-3{fill:#dc8d0c;}.cls-4{fill:#e6ac27;}.cls-5{fill:#78bea2;}.cls-6{fill:#b3e7b4;}.cls-7{fill:#cce2d6;}.cls-8{fill:#655643;}</style>
    </defs>
    <g id="Layer_2" data-name="Layer 2">
        <g id="Layer_1-2" data-name="Layer 1">
            <line class="cls-1" x1="983.91" y1="910.5" x2="982.42" y2="911.68" />
            <polygon class="cls-2" points="396.46 0 396.46 188.91 0 507.11 0 242.56 396.46 0" />
            <polygon class="cls-3" points="205.11 507.1 82.19 647.74 0 507.1 205.11 507.1" />
            <polygon class="cls-3" points="396.46 188.91 396.46 392.53 123.12 684.05 81.81 647.93 195.81 517.53 11.84 517.53 11.84 507.11 0 507.11 396.46 188.91" />
            <polygon class="cls-4" points="512.19 498.19 335.49 869.67 123.12 684.05 396.46 392.53 396.46 397.04 512.19 498.19" />
            <polygon class="cls-5" points="680.72 645.49 538.52 1047.14 335.49 869.67 512.19 498.19 680.72 645.49" />
            <path class="cls-6" d="M985.67,911.68v31.75l-396.44,148-50.71-44.31,142.2-401.65,303.19,265-1,1.18Z" />
            <path class="cls-7" d="M985.67,943.43v279.24H589.23V1091.45Z" />
            <polygon class="cls-8" points="396.46 0 0 242.56 0 0 396.46 0" />
            <line class="cls-9" x1="632.92" y1="1075.14" x2="600.55" y2="1090.32" />
            <polygon points="1267.09 768.38 1269.09 833.28 1242.44 833.79 1246.91 768.54 1267.09 768.38" />
            <path d="M766.49,275.85c-80.12,0-137.84,56.23-137.84,136.34,0,60.71,37.82,104.5,112,104.5,61.21,0,96.54-27.87,105.5-40.31l-32.35-55.73c-5.47,6-28.86,23.89-57.22,23.89-25.88,0-36.33-16.92-36.33-41.31,0-31.84,14.43-54.73,34.83-54.73,13.44,0,17.92,10.94,17.92,21.89a34.23,34.23,0,0,1-2.49,12.94l77.13-4s5-11.45,5-27.87C852.57,309.19,823.21,275.85,766.49,275.85Z" />
            <path d="M1023.74,476.88h1c3.08,25.77,19.58,39.81,59.68,39.81a165.68,165.68,0,0,0,41.3-5l5.47-65.18a30.77,30.77,0,0,1-9,1.49c-7,0-10.94-3.48-10-12.44l19.41-156.75h-74.14c-7.47,12.94-13.94,32.35-14.44,36.83H1042c-8.34-24.1-27.27-39.81-61.56-39.81-66.18,0-109.47,62.2-109.47,139.33,0,67.17,37.32,101.51,84.59,101.51C993.39,516.69,1011.8,499.77,1023.74,476.88Zm-61.21-72.15c0-32.84,15.43-53.74,37.32-53.74a29.67,29.67,0,0,1,29.58,31.68l-3.09,25.05c-3.18,17.08-19.4,33.83-37.44,33.83C972.48,441.55,962.53,427.12,962.53,404.73Z" />
            <path d="M1229,757.47h0l16.43-134.62h.29L1289,271.54h-89.57l-43.2,350.64c-9-14.44-25.84-24.44-54.62-24.44-54.74,0-113.95,47.27-113.95,140.82,0,56.73,27.86,100,79.62,100,35.82,0,58.71-16.92,72.65-42.3H1141c2.19,27.35,18.75,42.3,60.12,42.3a165.59,165.59,0,0,0,41.3-5l5.48-65.19a30.52,30.52,0,0,1-9,1.5C1232,769.91,1228,766.42,1229,757.47Zm-86-27.62c-2.85,20.47-21.69,33.59-37.43,33.59-16.92,0-26.87-13.93-26.87-35.33,0-33.34,15.92-55.24,37.82-55.24,17,0,30,15.22,29.55,32.07Z" />
            <path d="M1536,600.72h-74.14c-7.46,12.94-13.93,32.35-14.43,36.83h-1.13c-8.34-24.1-27.27-39.81-61.56-39.81-66.18,0-109.48,62.2-109.48,139.33,0,67.17,37.32,101.51,84.6,101.51,37.81,0,56.23-16.92,68.17-39.81h1c3.08,25.76,19.58,39.81,59.67,39.81a165.59,165.59,0,0,0,41.3-5l5.48-65.19a30.52,30.52,0,0,1-9,1.5c-7,0-11-3.49-10-12.44ZM1430.63,729.61c-3.19,17.08-19.41,33.83-37.44,33.83-16.42,0-26.37-14.43-26.37-36.82,0-32.85,15.42-53.75,37.32-53.75,15.24,0,30.47,12.31,29.57,31.69Z" />
            <path d="M1701.7,535.54,1616.61,538l-7.42,62.7h-38.86l-8,66.18h33.87l-8,64.69c-9,72.65,25.38,107,85.59,107,50.76,0,79.12-18.41,79.12-18.41L1737,751a52,52,0,0,1-32.85,11.94c-19.9,0-28.86-9.45-25.87-35.33l7.39-60.71h71.73l8-66.18h-71.63Z" />
            <path d="M2014.69,757.47l19.4-156.75H1960c-7.46,12.94-13.93,32.35-14.43,36.83h-1.13c-8.34-24.1-27.27-39.81-61.56-39.81-66.18,0-109.48,62.2-109.48,139.33,0,67.17,37.32,101.51,84.6,101.51,37.81,0,56.23-16.92,68.17-39.81h1c3.08,25.76,19.57,39.81,59.67,39.81a165.59,165.59,0,0,0,41.3-5l5.48-65.19a30.52,30.52,0,0,1-9,1.5C2017.67,769.91,2013.69,766.42,2014.69,757.47Zm-86-27.86c-3.19,17.08-19.41,33.83-37.44,33.83-16.42,0-26.37-14.43-26.37-36.82,0-32.85,15.42-53.75,37.32-53.75,15.24,0,30.47,12.31,29.57,31.69Z" />
        </g>
    </g>
</svg>